<?xml version="1.0" standalone="no"?><!DOCTYPE svg PUBLIC "-//W3C//DTD SVG 1.1//EN" "http://www.w3.org/Graphics/SVG/1.1/DTD/svg11.dtd"><svg t="1613379752035" class="icon" viewBox="0 0 1024 1024" version="1.1" xmlns="http://www.w3.org/2000/svg" p-id="3347" xmlns:xlink="http://www.w3.org/1999/xlink" width="200" height="200"><defs><style type="text/css"></style></defs><path d="M512.000513 971.636988c-253.482834 0-459.636474-206.161851-459.636474-459.608765 0-253.498228 206.212138-459.664184 459.636474-459.664184 253.431521 0 459.636474 206.225479 459.636474 459.664184C971.636988 765.475137 765.489504 971.636988 512.000513 971.636988L512.000513 971.636988zM512.000513 95.999711c-229.396443 0-415.999776 186.616674-415.999776 416.030563 0 229.35334 186.604359 415.970014 415.999776 415.970014 229.396443 0 415.999776-186.616674 415.999776-415.970014C928.000289 282.674882 741.39593 95.999711 512.000513 95.999711L512.000513 95.999711zM698.306229 279.252295 325.695823 279.252295c-27.945139 0-50.811303 22.864111-50.811303 50.810277l0 363.875882c0 27.945139 22.865138 50.810277 50.811303 50.810277l372.60938 0c27.944113 0 50.810277-22.864111 50.810277-50.810277l0-363.875882C749.11548 302.116407 726.250342 279.252295 698.306229 279.252295zM580.185421 342.224814c73.392166 0 132.105693 57.354755 132.105693 129.048456s-58.713527 129.048456-132.105693 129.048456-132.105693-57.354755-132.105693-129.048456S506.793255 342.224814 580.185421 342.224814zM350.298424 378.093729l55.767127 0c8.663711 0 15.754162 10.26776 15.754162 19.583149s-7.089424 20.245088-15.754162 20.245088l-55.767127 0c-8.663711 0-15.753136-10.928674-15.753136-20.245088S341.634713 378.093729 350.298424 378.093729zM347.12214 509.382516l79.573347 0c6.918038 0 12.577878 10.26776 12.577878 19.583149s-5.65984 20.245088-12.577878 20.245088l-79.573347 0c-6.918038 0-12.576852-10.928674-12.576852-20.245088S340.204102 509.382516 347.12214 509.382516zM673.4368 677.501828l-322.872574 0c-9.280495 0-16.871762-10.928674-16.871762-20.245088 0-9.314362 7.591267-19.583149 16.871762-19.583149l322.872574 0c9.280495 0 16.871762 10.268787 16.871762 19.583149C690.309589 666.572128 682.717296 677.501828 673.4368 677.501828zM572.846615 499.950134c1.468582 0 2.935112 0 4.403694 0 1.467556 0 1.467556 0 2.935112 0l73.392166 0c8.808415 0 14.679665-5.734757 14.679665-14.337919 0-8.604188-5.87125-14.338945-14.679665-14.338945l-58.712501 0 0-50.185283c0-11.470541-10.275971-21.508418-22.018471-21.508418-11.741474 0-22.018471 10.037878-22.018471 21.508418l0 57.354755C550.828144 489.913283 561.104115 499.950134 572.846615 499.950134z" p-id="3348" fill="#ffffff"></path></svg>